<?xml version="1.0" encoding="UTF-8" standalone="no"?>
<!-- Created with Inkscape (http://www.inkscape.org/) -->

<svg
   width="510.65805mm"
   height="190.47606mm"
   viewBox="0 0 510.65805 190.47606"
   version="1.1"
   id="svg1"
   xml:space="preserve"
   xmlns="http://www.w3.org/2000/svg"
   xmlns:svg="http://www.w3.org/2000/svg"><defs
     id="defs1" /><g
     id="layer1"
     transform="translate(-9.9657648,-53.522548)"><g
       style="fill:none"
       id="g1"
       transform="matrix(8.8194444,0,0,8.8194444,-1.0585394,42.49824)"><g
         id="SVGRepo_bgCarrier"
         stroke-width="0" /><g
         id="SVGRepo_tracerCarrier"
         stroke-linecap="round"
         stroke-linejoin="round" /><g
         id="SVGRepo_iconCarrier"><path
           d="M 22,12 V 9 C 22,4 20,2 15,2 H 9 C 4,2 2,4 2,9 v 6 c 0,5 2,7 7,7 h 3"
           stroke="#000000"
           stroke-width="1.5"
           stroke-linecap="round"
           stroke-linejoin="round"
           id="path1" /><path
           d="m 20.96,17.84 -1.63,0.55 c -0.45,0.15 -0.81,0.5 -0.96,0.96 l -0.55,1.63 c -0.47,1.41 -2.45,1.38 -2.89,-0.03 L 13.08,15 c -0.36,-1.18 0.73,-2.28 1.9,-1.91 l 5.96,1.85 c 1.4,0.44 1.42,2.43 0.02,2.9 z"
           stroke="#000000"
           stroke-width="1.5"
           stroke-linecap="round"
           stroke-linejoin="round"
           id="path2" /></g></g><g
       style="fill:none;stroke:#000000"
       id="g2"
       transform="matrix(8.8194444,0,0,8.8194444,346.4398,43.356214)"><g
         id="SVGRepo_bgCarrier-0"
         stroke-width="0" /><g
         id="SVGRepo_tracerCarrier-9"
         stroke-linecap="round"
         stroke-linejoin="round" /><g
         id="SVGRepo_iconCarrier-4"><path
           d="m 5,9 c 0,-3.86599 3.13401,-7 7,-7 3.866,0 7,3.13401 7,7 v 6 c 0,3.866 -3.134,7 -7,7 -3.86599,0 -7,-3.134 -7,-7 z"
           stroke="#000000"
           stroke-width="1.5"
           id="path1-8" /><path
           d="M 10.5,8.5 C 10.5,7.67157 11.1716,7 12,7 c 0.8284,0 1.5,0.67157 1.5,1.5 v 2 c 0,0.8284 -0.6716,1.5 -1.5,1.5 -0.8284,0 -1.5,-0.6716 -1.5,-1.5 z"
           stroke="#000000"
           stroke-width="1.5"
           id="path2-8" /><path
           opacity="1"
           d="M 12,2 V 7"
           stroke="#000000"
           stroke-width="1.5"
           stroke-linecap="round"
           id="path3" /></g></g></g></svg>
