<?xml version="1.0" encoding="UTF-8" standalone="no"?>
<!-- Created with Inkscape (http://www.inkscape.org/) -->

<svg
   width="223.98619mm"
   height="149.05583mm"
   viewBox="0 0 223.98619 149.05583"
   version="1.1"
   id="svg1"
   xml:space="preserve"
   xmlns="http://www.w3.org/2000/svg"
   xmlns:svg="http://www.w3.org/2000/svg"><defs
     id="defs1"><marker
       style="overflow:visible"
       id="RoundedArrow"
       refX="0"
       refY="0"
       orient="auto-start-reverse"
       markerWidth="0.75"
       markerHeight="0.75"
       viewBox="0 0 1 1"
       preserveAspectRatio="xMidYMid"><path
         transform="scale(0.7)"
         d="m -0.21114562,-4.1055728 6.42229122,3.21114561 a 1,1 90 0 1 0,1.78885438 L -0.21114562,4.1055728 A 1.236068,1.236068 31.717474 0 1 -2,3 v -6 a 1.236068,1.236068 148.28253 0 1 1.78885438,-1.1055728 z"
         style="fill:context-stroke;fill-rule:evenodd;stroke:none"
         id="path8" /></marker><clipPath
       clipPathUnits="userSpaceOnUse"
       id="clipPath110"><path
         id="path111"
         style="fill:#ff0000;fill-opacity:1;fill-rule:nonzero;stroke:none;stroke-width:0.264583"
         d="M -24.738025,114.53616 V 236.55559 H 145.46347 c 0.0103,-0.0175 0.0214,-0.0346 0.0315,-0.0522 0.14962,-0.25999 0.28495,-0.52831 0.39119,-0.80925 0.018,-0.0488 0.0369,-0.0972 0.0543,-0.14624 0.075,-0.21185 0.13581,-0.42934 0.17311,-0.65113 0.0182,-0.11713 0.0247,-0.15192 0.0372,-0.2713 0.0216,-0.20675 0.0287,-0.41497 0.0207,-0.6227 -0.0125,-0.32684 -0.0328,-0.65392 -0.092,-0.97617 -0.0501,-0.27184 -0.10671,-0.54335 -0.20051,-0.80408 -0.0764,-0.2179 -0.15807,-0.435 -0.26872,-0.63821 -0.0327,-0.056 -0.0523,-0.0925 -0.0899,-0.14469 -0.0646,-0.0896 -0.14325,-0.16883 -0.22325,-0.24443 -0.11097,-0.0988 -0.22688,-0.1914 -0.3545,-0.2682 -0.10145,-0.0617 -0.20437,-0.12098 -0.31316,-0.16898 -0.0837,-0.0366 -0.16879,-0.0707 -0.25579,-0.0987 -0.0667,-0.0212 -0.13332,-0.0436 -0.20102,-0.0615 v 5.3e-4 c -0.24324,-0.0644 -0.21939,-0.28741 -0.0238,-0.29352 0.028,-7.9e-4 0.0593,0.002 0.0941,0.0113 0.0736,0.0192 0.14609,0.0431 0.21859,0.0661 0.0966,0.0309 0.1908,0.0686 0.2837,0.10904 0.0135,0.006 0.0254,0.015 0.0388,0.0212 -0.001,-0.0317 -0.002,-0.0637 -0.005,-0.0951 0.0294,-0.0175 0.0579,-0.0395 0.0894,-0.0527 0.0341,-0.0142 0.0982,0.004 0.13436,0.0119 0.042,0.0114 0.0841,0.0244 0.12558,0.0377 0.007,10e-4 0.0145,0.002 0.0217,0.004 0.004,-0.001 0.008,-0.002 0.0124,-0.003 0.0458,-0.013 0.0891,-0.0326 0.13487,-0.0455 0.0579,-0.0191 0.11599,-0.0379 0.17519,-0.0527 l 0.001,-0.001 c 0.0261,-0.007 0.0488,-0.01 0.0713,-0.0109 0.1402,-0.005 0.20539,0.0921 0.16589,0.17829 0.0488,0.002 0.0974,0.006 0.14624,0.009 0.0134,-0.0652 0.057,-0.10429 0.108,-0.10904 0.0589,-0.005 0.12687,0.0356 0.1695,0.13437 0.0242,0.005 0.0518,0.007 0.0522,0.0119 7.9e-4,0.009 2.6e-4,0.0166 0.002,0.0253 0.0417,-0.15502 0.25765,-0.16222 0.7798,-0.15813 0.28012,-0.0824 0.75084,-0.09 1.53221,-0.14004 1.00154,-0.0651 2.00564,-0.0578 3.00756,-0.11007 1.37342,-0.0904 2.74862,-0.14512 4.1243,-0.18501 1.49293,-0.0217 2.9845,-0.045 4.47363,-0.15916 1.56536,-0.11468 3.128,-0.25832 4.69223,-0.38706 1.52532,-0.10707 3.05208,-0.17989 4.5749,-0.32142 1.65971,-0.15204 3.3204,-0.29362 4.98161,-0.42892 1.44393,-0.10862 2.88264,-0.2689 4.32739,-0.36897 1.1454,-0.0885 2.28402,-0.234 3.42357,-0.3762 0.18932,-0.0198 0.37783,-0.047 0.56688,-0.0692 0.0891,-0.32928 0.18177,-0.65728 0.25942,-0.99012 0.13984,-0.51491 0.26311,-1.03657 0.34571,-1.56373 0.0752,-0.67437 0.18976,-1.34431 0.23306,-2.02158 0.0788,-0.93965 0.18452,-1.87628 0.29456,-2.81275 0.0757,-0.91954 0.20868,-1.83196 0.28577,-2.75073 0.0554,-0.7917 0.0468,-1.58328 0.0269,-2.3766 -0.0154,-0.66452 -0.0346,-1.3294 -0.0956,-1.99161 -0.0669,-0.67298 -0.18788,-1.33853 -0.24598,-2.01228 -0.0776,-0.7225 -0.19923,-1.43803 -0.31006,-2.15594 -0.0817,-0.80198 -0.14908,-1.60318 -0.16588,-2.40968 -0.0534,-0.85843 -0.1312,-1.71536 -0.24753,-2.5678 -0.11176,-1.01071 -0.19981,-2.02482 -0.27802,-3.03857 -0.0252,-1.11611 -0.0195,-2.23885 0.28112,-3.32435 0.2675,-0.88777 0.64492,-1.72661 1.15755,-2.5001 -0.29227,-0.0621 -0.58112,-0.1316 -0.86558,-0.21291 -0.10466,0.23372 -0.23321,0.44228 -0.40359,0.58911 -0.14292,0.12314 -0.32813,0.18712 -0.49196,0.2806 -0.15494,-0.006 -0.31374,0.0146 -0.46509,-0.0191 -0.79883,-0.17808 -1.55876,-1.27356 -2.08721,-1.82211 -0.54764,-0.68047 -1.07639,-1.37537 -1.58439,-2.08462 -0.13884,-0.15075 -0.27598,-0.30316 -0.41704,-0.45166 -1.11538,-1.30263 -2.12978,-2.70819 -2.77089,-4.30671 0.18114,0.0505 -0.28622,-0.49188 -0.11162,-0.51728 0.32104,-0.0468 0.66277,-0.0625 0.97927,0.005 0.008,-0.008 0.0193,-0.0147 0.0274,-0.0233 -0.004,-0.0154 -0.009,-0.0305 -0.0129,-0.046 -0.004,-0.0148 0.029,0.0308 0.0186,0.0419 -0.002,0.002 -0.004,0.003 -0.005,0.004 0.003,0.0107 0.006,0.0213 0.009,0.032 0.0504,0.0126 0.10212,0.0212 0.15089,0.0393 0.18975,0.0704 0.22943,0.33356 0.33797,0.50437 0.0885,0.1392 0.85818,1.41125 0.91208,1.50015 0.51117,0.89013 1.074,1.74547 1.66864,2.57867 0.11391,0.12318 0.22839,0.24608 0.34985,0.36173 0.95207,0.90651 2.03451,1.58136 3.21634,2.04432 0.0363,-0.19179 0.0668,-0.38488 0.0961,-0.57982 0.0263,-0.21962 0.0479,-0.43965 0.0672,-0.6599 -1.44995,-1.18745 -2.82411,-2.46281 -4.03541,-3.90673 -0.64327,-0.76683 0.16811,-1.36171 0.81494,-0.5979 1.00575,1.18764 2.12351,2.25818 3.30212,3.25975 0.0178,-0.3453 0.0355,-0.69085 0.0512,-1.03611 0.0304,-0.50889 -0.0328,-0.56009 1.13482,-0.12971 0.14877,0.0549 0.14124,0.28438 0.21394,0.4253 0.23382,0.45292 0.47112,0.90365 0.72037,1.34824 0.0451,0.0698 0.088,0.141 0.13229,0.21134 5.3e-4,-0.006 2.6e-4,-0.007 0.001,-0.0134 0.0687,-0.6366 0.0647,-1.28394 0.0134,-1.92443 -0.0293,-0.0607 -0.0429,-0.11652 -0.0145,-0.15917 -0.008,-0.0867 -0.0141,-0.17365 -0.0238,-0.25993 0.18319,0.0135 0.37054,0.006 0.55552,0.01 0.009,-0.002 0.0184,-0.004 0.0274,-0.007 -0.009,-0.0266 -0.0168,-0.0535 -0.0258,-0.0801 -0.0561,-0.0486 -0.11378,-0.095 -0.16898,-0.14469 -0.14007,-0.13644 -0.16945,-0.17836 -0.20361,-0.21394 -1.16649,-0.56413 -1.16562,-1.57512 -0.44391,-1.99213 -0.0664,-0.18301 -0.0715,-0.27949 0.20516,-0.30489 0.17775,-0.30051 0.29776,-0.39299 0.4005,-0.41186 -0.0454,-0.1128 -0.0889,-0.22641 -0.13074,-0.34055 -0.0601,-0.1706 -0.121,-0.3412 -0.16331,-0.51728 -0.0534,-0.22238 0.0489,-0.3511 0.16588,-0.35088 0.0643,1.2e-4 0.1257,0.0557 0.1752,0.13953 -0.001,-0.0159 -0.003,-0.0311 -0.004,-0.0476 h 5.3e-4 c -0.0109,-0.40645 0.39459,-0.43299 0.40979,-0.0269 0.003,0.0775 0.008,0.15458 0.0248,0.23048 0.0219,0.0991 0.0564,0.1947 0.0909,0.2899 0.0527,0.13143 0.11289,0.25965 0.1757,0.38654 0.065,0.13642 0.14244,0.26576 0.22944,0.38913 0.0963,0.13925 0.22507,0.24973 0.35295,0.35863 0.2062,0.17262 0.44199,0.30416 0.67903,0.42892 0.21689,0.11046 0.44383,0.19895 0.67851,0.26355 0.0487,0.0134 0.0983,0.0248 0.14728,0.0372 0.319,0.0802 0.64073,0.0954 0.9679,0.0951 0.25043,-0.003 0.50004,-0.0317 0.74259,-0.0951 0.0446,-0.0117 0.0885,-0.0254 0.13281,-0.0382 0.20995,-0.069 0.41453,-0.15972 0.60048,-0.28008 0.036,-0.0233 0.0702,-0.0493 0.10542,-0.0739 0.18963,-0.14138 0.35436,-0.31248 0.49764,-0.50023 0.0217,-0.0283 0.0419,-0.0577 0.0625,-0.0868 0.005,-0.0159 0.0116,-0.0311 0.0165,-0.047 0.009,-0.0429 0.0885,-0.32251 0.16226,-0.56327 0.006,-0.44421 0.0115,-0.89125 0.10749,-1.32654 0.0437,-0.13708 0.0701,-0.23233 0.10438,-0.30282 V 114.5403 Z m 210.842425,72.48292 -5.3e-4,5.3e-4 -5.3e-4,5.3e-4 c 0.002,0.002 0.003,0.005 0.005,0.007 -0.001,-0.003 -0.003,-0.005 -0.004,-0.008 z m 0.006,0.0103 c 0.0345,0.0664 0.0735,0.13011 0.10904,0.19585 0.0132,-0.009 0.03,-0.0201 0.045,-0.0305 -0.0443,-0.0488 -0.0998,-0.0869 -0.13746,-0.1416 -0.006,-0.008 -0.0111,-0.0158 -0.0165,-0.0238 z m 4.99711,0.81856 c -7.9e-4,7.9e-4 -0.002,0.002 -0.004,0.003 -0.0432,0.0297 -0.0856,0.0607 -0.1297,0.0889 -0.0938,0.0601 -0.19955,0.0966 -0.30232,0.13952 0.003,-1.1e-4 0.006,-5.2e-4 0.009,-5.2e-4 0.0568,-0.0205 0.11397,-0.0401 0.16846,-0.0672 l 5.3e-4,0.002 c 0.0683,-0.034 0.13066,-0.0491 0.18448,-0.0496 0.0112,-9e-5 0.0216,5.3e-4 0.032,0.002 0.0136,-0.0391 0.0276,-0.0782 0.0413,-0.1173 z m -7.21868,4.11499 c -0.004,0.0602 -0.009,0.12019 -0.0134,0.18035 0.0632,0.0505 0.12671,0.10069 0.19017,0.1509 -0.0606,-0.10949 -0.11719,-0.22119 -0.17674,-0.33125 z m 1.84279,1.26917 c -0.0293,0.0218 -0.0593,0.0434 -0.0946,0.062 -0.06,0.0316 -0.11797,0.0527 -0.17467,0.0698 0.0781,0.0581 0.15742,0.11422 0.23565,0.17208 0.007,-0.10899 0.0358,-0.19317 0.0512,-0.293 -0.006,-0.003 -0.0115,-0.007 -0.0176,-0.0103 z m -1.96474,0.11007 c -0.002,0.0205 -0.004,0.0411 -0.007,0.0615 -0.0334,0.21694 -0.0728,0.47909 -0.12609,0.74982 0.4108,0.11666 0.83114,0.21128 1.26091,0.28267 0.0428,-0.0484 0.0879,-0.0943 0.13177,-0.14159 -0.42274,-0.31362 -0.84406,-0.62913 -1.25935,-0.9524 z m -2.25671,1.08366 c 0.12486,0.12395 0.25356,0.2441 0.39067,0.3545 0.13399,0.10789 0.45401,0.37231 0.47491,0.20154 -0.0219,-0.0203 -0.0676,-0.0311 -0.0656,-0.061 0.002,-0.0456 0.0311,-0.0846 0.0558,-0.12454 -0.2908,-0.11181 -0.57603,-0.23519 -0.85576,-0.37052 z m 10.30686,33.74161 c -0.0643,0.15713 -0.12385,0.31652 -0.19637,0.46974 0.0704,0.0821 0.13197,0.17107 0.19637,0.25786 z m -50.93642,0.0109 c 0.0275,-5.3e-4 0.0587,0.003 0.0935,0.0119 0.0767,0.0194 0.1488,0.0546 0.22221,0.0832 0.11169,0.0434 0.16747,0.0617 0.2868,0.10336 0.55241,0.18705 1.11086,0.35404 1.66915,0.52245 0.43579,0.13013 0.87079,0.26363 1.30483,0.39946 0.27444,0.0859 0.18715,0.36288 -0.0868,0.27698 -0.4331,-0.13553 -0.86689,-0.26857 -1.30173,-0.39842 -0.56231,-0.16963 -1.12518,-0.33757 -1.68155,-0.52607 -0.0574,-0.02 -0.11489,-0.0404 -0.17209,-0.061 -0.10014,-0.0361 -0.19784,-0.0782 -0.29765,-0.11524 -0.23582,-0.0875 -0.22865,-0.29366 -0.0367,-0.29662 z m 2.69802,1.69964 c 0.014,-5.3e-4 0.0301,0.002 0.0481,0.008 0.0856,0.03 0.17322,0.0539 0.25993,0.0801 0.033,0.0104 0.0664,0.0205 0.0997,0.0295 0.11708,0.033 0.0835,0.15145 -0.0336,0.11834 -0.0341,-0.01 -0.0681,-0.0199 -0.1018,-0.0305 -0.0885,-0.0268 -0.1778,-0.05 -0.2651,-0.0806 -0.0968,-0.0341 -0.0873,-0.12214 -0.007,-0.12455 z m 2.959,1.9265 c 9e-5,2.6e-4 8e-5,7.9e-4 5.3e-4,10e-4 l 5.3e-4,-5.3e-4 c -1.9e-4,-1e-4 -7.9e-4,-5.2e-4 -0.001,-5.2e-4 z m 45.2794,4.35942 c -0.17852,0.14851 -0.37968,0.26683 -0.57671,0.39067 h 0.57671 z m -45.97497,0.30747 c -0.009,0.0172 -0.0153,0.0361 -0.0248,0.0532 -0.006,0.01 -0.0121,0.0202 -0.0171,0.03 h 0.1106 c -0.0111,-0.022 -0.0387,-0.0519 -0.0687,-0.0832 z" /></clipPath></defs><g
     id="layer1"
     transform="translate(24.737876,-114.53617)"><rect
       style="fill:none;stroke:#000000;stroke-width:6.00001;stroke-linecap:round;stroke-linejoin:round"
       id="rect1"
       width="210.55403"
       height="116.01957"
       x="-21.737873"
       y="117.53617"
       clip-path="url(#clipPath110)" /><rect
       style="fill:none;stroke:#000000;stroke-width:6.00001;stroke-linecap:round;stroke-linejoin:round"
       id="rect112"
       width="39.321156"
       height="63.271309"
       x="156.92715"
       y="197.32071" /><path
       style="fill:none;stroke:#000000;stroke-width:6.00001;stroke-linecap:round;stroke-linejoin:round;stroke-dasharray:none;marker-end:url(#RoundedArrow)"
       d="M 142.62855,194.81845 C 97.587955,226.63284 30.741993,163.00406 30.741993,163.00406"
       id="path114" /></g></svg>
